<svg viewBox="0 0 48 48" xml:space="preserve" xmlns="http://www.w3.org/2000/svg" enable-background="new 0 0 48 48"><path d="M36.9 12c-.4-1.7-2-3-3.9-3s-3.4 1.3-3.9 3H2v2h27.1c.4 1.7 2 3 3.9 3s3.4-1.3 3.9-3H46v-2h-9.1zM33 15c-1.1 0-2-.9-2-2s.9-2 2-2 2 .9 2 2-.9 2-2 2zM33 31c-1.9 0-3.4 1.3-3.9 3H2v2h27.1c.4 1.7 2 3 3.9 3s3.4-1.3 3.9-3H46v-2h-9.1c-.5-1.7-2-3-3.9-3zm0 6c-1.1 0-2-.9-2-2s.9-2 2-2 2 .9 2 2-.9 2-2 2zM15 20c-1.9 0-3.4 1.3-3.9 3H2v2h9.1c.4 1.7 2 3 3.9 3s3.4-1.3 3.9-3H46v-2H18.9c-.5-1.7-2-3-3.9-3zm0 6c-1.1 0-2-.9-2-2s.9-2 2-2 2 .9 2 2-.9 2-2 2z" fill="#00bfa5" class="fill-000000"></path></svg>