<svg viewBox="0 0 512 512" xml:space="preserve" xmlns="http://www.w3.org/2000/svg" enable-background="new 0 0 512 512"><path d="m316.966 274.301-32.579 32.578 121.769 121.767 32.576-32.577-121.766-121.768zm-40.322 29.996 37.741-37.74a3.653 3.653 0 0 1 5.162 0l124.348 124.349 32.016-32.015-158.085-158.083a3.763 3.763 0 0 1-1.01-3.323c4.926-23.143 4.006-47.265-2.729-69.992-6.498-21.926-18.396-42.606-35.724-59.904-34.507-34.536-84.203-48.837-131.823-38.066l104.111 104.083a3.652 3.652 0 0 1 0 5.163L148.855 240.565c-1.395 1.425-3.739 1.425-5.134 0L39.61 136.453c-10.771 47.621 3.531 97.288 38.066 131.824 17.328 17.298 37.978 29.226 59.904 35.693 22.697 6.735 46.73 7.654 69.814 2.789 1.216-.297 2.551 0 3.5.949L369.005 465.82l31.986-32.014L276.644 309.46a3.654 3.654 0 0 1 0-5.163zM131.676 104.676c-4.303 0-8.635 1.662-11.958 4.955-3.292 3.293-4.924 7.625-4.924 11.957s1.632 8.664 4.924 11.986a16.945 16.945 0 0 0 11.958 4.926c4.271 0 8.514-1.572 11.808-4.747l.179-.179a16.993 16.993 0 0 0 4.954-11.986c0-4.303-1.662-8.664-4.954-11.957a16.995 16.995 0 0 0-11.987-4.955zm-17.091-.178c4.719-4.747 10.92-7.092 17.091-7.092 6.2 0 12.401 2.345 17.12 7.063a24.124 24.124 0 0 1 7.091 17.119c0 6.201-2.344 12.402-7.061 17.119l-.269.238c-4.687 4.568-10.769 6.854-16.881 6.854a24.133 24.133 0 0 1-17.091-7.092 24.151 24.151 0 0 1-7.091-17.119 24.134 24.134 0 0 1 7.091-17.09zM101.858 91.77l-22.55 40.618 41.628 41.598 40.587-22.55 22.55-40.617-41.598-41.629-40.617 22.58zm91.71 306.967a18.327 18.327 0 0 0-12.996-5.37 18.356 18.356 0 0 0-12.818 5.192l-.177.178c-3.323 3.323-5.401 7.922-5.401 12.996 0 5.104 2.078 9.702 5.371 12.995 3.324 3.353 7.921 5.4 13.025 5.4 5.073 0 9.672-2.077 12.996-5.4 3.322-3.293 5.369-7.892 5.369-12.995a18.32 18.32 0 0 0-5.369-12.996zm-12.996-12.669c7.091 0 13.5 2.879 18.158 7.507 4.627 4.657 7.507 11.067 7.507 18.158s-2.879 13.5-7.537 18.158a25.468 25.468 0 0 1-18.128 7.536 25.514 25.514 0 0 1-18.128-7.536c-4.689-4.658-7.566-11.097-7.566-18.158 0-7.091 2.877-13.501 7.537-18.158l.237-.208a25.653 25.653 0 0 1 17.92-7.299zm5.637-37.591h-11.274v11.304a63.885 63.885 0 0 1 3.413-.267H178.881l.089-.029h3.206l.087.029H182.799c1.157.059 2.285.148 3.412.267v-11.304zm43.081 22.489-7.951-7.951-8.01 8.011.326.268.147.118.06.06.06.029.06.06.058.06.089.059.06.061.06.029.06.059.03.029.028.03.119.119.06.029.06.06.06.029v.03l.088.06.239.207.058.06c.892.771 1.722 1.513 2.494 2.313a59.18 59.18 0 0 1 2.521 2.73l.03.029.03.029.03.061.058.059.06.06.06.06.06.059.03.06.06.06v.029l.058.029.06.09.03.059.06.06.06.06.06.06.028.06.06.059.386.476 8.004-8.018zm14.567 46.404v-11.244h-11.304c.089 1.038.179 2.106.238 3.174v.476l.03.06v1.012h.028V412.572l-.028.147V413.641l-.03.09v.475l-.03.088v.06c-.03 1.039-.119 2.019-.208 3.026h11.304zm-22.518 43.082 7.951-7.952-7.98-7.981c-.712.831-1.425 1.662-2.136 2.463l-.06.06-.06.06-.03.029-.089.089-.03.06-.058.059-.119.119-.03.06-.06.06-.06.06-.058.028-.06.06-.03.061-.06.059-.06.06-.06.06-.028.059-.06.03-.03.029-.03.03-.06.059-.03.06-.06.06-.058.059-.06.03v.029l-.03.03-.06.059-.06.06-.06.06-.058.029-.03.06-.06.06-.386.356-.03.029v.029l-.177.148-.06.06-.06.059-.03.06-.06.03-.06.06-.058.059-.06.06-.06.059-.06.03-.06.06-.03.06-.118.089-.06.06-.06.059c-.89.802-1.779 1.603-2.729 2.345l8.021 7.971zm-46.404 14.568h11.274v-11.305a70.748 70.748 0 0 1-3.59.268h-.533l-.089.03h-2.877l-.06-.03h-.623l-.087-.029h-.475l-.06-.03h-.09c-.949-.029-1.869-.118-2.788-.208v11.304zm-43.081-22.52 7.951 7.952 8.012-7.981-.979-.831h-.03l-.533-.475-.06-.03-.179-.178-.06-.029-.058-.06-.06-.06-.03-.029-.03-.03-.06-.059-.06-.03-.058-.06-.06-.059-.06-.029v-.03l-.06-.06-.06-.029a47.741 47.741 0 0 1-3.47-3.471l-.03-.029v-.03l-.207-.236-.06-.061-.06-.059-.06-.06-.03-.029-.03-.03-.028-.059-.06-.06-.06-.06-.06-.06-.06-.06-.03-.059-.058-.06-.03-.029-.03-.03-.06-.059-.03-.06-.06-.06-.118-.119-.03-.088-.06-.06-.119-.119-.06-.06-.147-.178-.06-.059-.03-.061v-.029l-.386-.475-8.003 8.016zm15.636-10.296 1.276 1.336 1.335 1.306.06.029.028.059.119.09.03.059.06.03.06.06.03.029.058.06.06.029.03.06h.03l.03.03.06.059.088.09.06.028.03.06.06.03.06.029v.03l.03.029.06.029.088.09.06.059.03.03.119.089.028.029.269.208.03.029.86.712.03.03.06.029.326.267.03.03h.028l.03.029.06.06.06.03.06.029.03.06.06.029.058.03.03.028.03.03.06.029.06.061.03.029.06.029.058.06.06.029.06.03v.029l.06.029.03.03.06.029.058.06.06.029.06.029.06.061.06.029.03.029.058.06.06.029.06.03.06.059.06.03.058.029.03.03.03.029.06.029.03.03.089.06.03.029.058.03.06.059.06.03.03.029h.03l.06.059.06.03.058.029.06.06.09.06c6.824 4.629 15.071 7.299 23.854 7.566h1.158a44.89 44.89 0 0 0 31.035-12.403l.623-.593.03-.06.06-.059.06-.06.058-.03.03-.06c7.833-7.892 12.759-18.662 13.085-30.56v-1.782a44.623 44.623 0 0 0-.683-7.239l-.03-.06v-.148l-.03-.06V403.537l-.03-.06c-1.126-6.231-3.59-12.017-7.031-17.062l-.03-.029-.03-.059-.03-.06-.03-.06-.058-.06v-.03l-.03-.029-.06-.089-.06-.06-.06-.118-.06-.03-.058-.118-.03-.06-.06-.029-.03-.06-.03-.06-.03-.059-.06-.029-.03-.061-.03-.059-.028-.06-.06-.03-.03-.059-.03-.06-.06-.06-.03-.059-.03-.03-.03-.06-.03-.029-.028-.029-.03-.03-.03-.06-.06-.059-.03-.061-.03-.029-.03-.059-.06-.06-.03-.03v-.029l-.028-.029-.06-.06-.149-.179-.03-.059-.03-.06-.03-.03-.028-.029a65.357 65.357 0 0 0-1.871-2.225l-.03-.03-.058-.06-.03-.059-.06-.029-.03-.03-.03-.029-.03-.06-.06-.029-.03-.06-.058-.06-.03-.029-.06-.06-.06-.06v-.029l-.03-.029-.06-.03-.03-.06-.058-.059-.06-.03-.03-.06-.06-.059-.296-.297-.06-.06-.06-.089h-.03l-.058-.06-.03-.06-.267-.267-.268-.237-.058-.06-.03-.06-.119-.089-.06-.06-.03-.059-.06-.03-.088-.118h-.03l-.089-.09-.06-.059-.03-.029-.058-.06-.06-.03-.06-.059-.03-.03v-.03l-.06-.029-.06-.059-.028-.03-.06-.06-.06-.059-.03-.029-.06-.061h-.03l-.03-.029-.058-.059-.03-.03-.06-.06a45.898 45.898 0 0 0-2.581-2.166h-.03l-.03-.029-1.009-.771-.06-.029-.06-.061-.058-.029-.03-.029h-.03l-.06-.059-.06-.03-.03-.06-.06-.029-.058-.029-.06-.03-.06-.06-.06-.029-.06-.029-.058-.061-.06-.029-.06-.029-.03-.06-.06-.03-.06-.029-.058-.059-.06-.029-.06-.03-.06-.06-.089-.029-.058-.06c-6.796-4.599-14.954-7.27-23.677-7.565H181.067l-.089-.03H180.118l-.06.03H179.197c-11.839.355-22.521 5.281-30.352 13.055l-.03.059-.06.03-.06.06-.06.059c-7.803 7.863-12.757 18.634-13.055 30.561v1.782c.03 2.581.298 5.074.742 7.537v.089l.06.326h.03a44.447 44.447 0 0 0 6.972 16.764l.06.059.03.06.03.06.03.029.03.03.03.029.03.06.03.059.028.061.06.029.06.118.03.06.06.029v.03l.03.029.03.06.058.059.03.061.03.029.03.059.06.06.03.061.03.028.03.06.06.06.028.06.03.029.03.06.06.059.03.061.03.029.06.06.03.059.177.238.06.059.06.09.06.059.058.089.06.061.089.147.06.06.06.089.058.059.089.148.06.03v.029l.919 1.068.03.06.03.06.06.029v.029l.03.03.058.06.03.029.06.059.03.061.06.029.03.059.06.06.028.03.06.059.03.06.06.03.03.06.06.059.03.03.058.06.03.028v.03l.06.03.03.06.06.059.058.036zm-30.204-36.078v11.244h11.304c-.119-1.038-.177-2.106-.237-3.174v-.387l-.03-.088v-.774l-.03-.06V410.687l.03-.148v-.833l.03-.029v-.566c.06-1.009.147-2.017.237-2.996h-11.304zm157.132-208.464c3.413 3.383 8.546-1.75 5.163-5.162l-5.163-5.133c-3.381-3.412-8.544 1.75-5.162 5.133l5.162 5.162zm20.622 20.621c3.381 3.383 8.544-1.75 5.162-5.162l-5.162-5.163c-3.383-3.382-8.546 1.78-5.164 5.163l5.164 5.162zm20.62 20.621c3.383 3.383 8.546-1.781 5.162-5.163l-5.162-5.162c-3.383-3.383-8.545 1.78-5.162 5.162l5.162 5.163zm20.62 20.621c3.384 3.382 8.546-1.781 5.163-5.163l-5.163-5.163c-3.382-3.382-8.544 1.78-5.163 5.163l5.163 5.163zm20.622 20.621c3.381 3.382 8.543-1.781 5.162-5.164l-5.162-5.162c-3.383-3.383-8.546 1.78-5.162 5.162l5.162 5.164zm20.619 20.62c3.384 3.383 8.547-1.779 5.163-5.162l-5.163-5.162c-3.381-3.383-8.545 1.78-5.162 5.162l5.162 5.162zm20.622 20.621c3.383 3.383 8.546-1.779 5.164-5.162l-5.164-5.162c-3.381-3.383-8.544 1.779-5.162 5.162l5.162 5.162zm20.622 20.621c3.381 3.383 8.544-1.779 5.162-5.162l-5.162-5.163c-3.323-3.323-8.486 1.84-5.163 5.163l5.163 5.162zm18.574 18.574c3.381 3.382 8.544-1.781 5.162-5.163l-3.116-3.115c-3.323-3.323-8.486 1.839-5.163 5.163l3.117 3.115zM253.798 166.746c-3.383-3.412-8.546 1.75-5.133 5.133l5.133 5.162c3.411 3.412 8.543-1.75 5.163-5.162l-5.163-5.133zM199.59 272.995c3.324 3.323 8.486-1.839 5.163-5.163l-5.133-5.162c-3.383-3.383-8.545 1.78-5.162 5.162l5.132 5.163zm20.62 20.621c3.413 3.382 8.576-1.78 5.163-5.163l-5.163-5.162c-3.352-3.383-8.514 1.779-5.132 5.162l5.132 5.163zm20.623 20.62c3.381 3.383 8.544-1.779 5.163-5.162l-5.163-5.162c-3.383-3.383-8.546 1.779-5.163 5.162l5.163 5.162zm20.619 20.621c3.413 3.383 8.546-1.78 5.162-5.162l-5.162-5.163c-3.381-3.382-8.543 1.78-5.162 5.163l5.162 5.162zm20.622 20.622c3.381 3.383 8.544-1.781 5.162-5.163l-5.162-5.162c-3.384-3.382-8.546 1.75-5.164 5.162l5.164 5.163zm20.62 20.591c3.383 3.411 8.546-1.752 5.163-5.134l-5.163-5.163c-3.384-3.382-8.546 1.781-5.163 5.163l5.163 5.134zm20.62 20.651c3.383 3.382 8.545-1.78 5.162-5.164l-5.162-5.162c-3.381-3.383-8.544 1.78-5.162 5.162l5.162 5.164zm20.623 20.62c3.382 3.383 8.544-1.78 5.162-5.163l-5.162-5.162c-3.384-3.383-8.546 1.78-5.163 5.162l5.163 5.163zm18.572 18.573c3.413 3.383 8.575-1.779 5.162-5.162l-3.114-3.115c-3.382-3.383-8.516 1.78-5.133 5.162l3.085 3.115zM179 242.049c-3.413-3.383-8.576 1.781-5.165 5.163l5.134 5.162c3.412 3.382 8.574-1.75 5.163-5.162L179 242.049zm230.952 225.286c1.988 0 3.62 1.632 3.62 3.65 0 1.987-1.632 3.648-3.62 3.648H199.797c-2.016 0-3.648-1.661-3.648-3.648a3.646 3.646 0 0 1 3.648-3.65h210.155zM286.88 478.699c2.019 0 3.648 1.632 3.648 3.649s-1.63 3.649-3.648 3.649H141.466c-1.988 0-3.648-1.632-3.648-3.649s1.66-3.649 3.648-3.649H286.88zm-160.278 0c2.018 0 3.65 1.632 3.65 3.649s-1.632 3.649-3.65 3.649h-18.188c-2.016 0-3.648-1.632-3.648-3.649s1.632-3.649 3.648-3.649h18.188zm312.961-2.077c1.988 0 3.648 1.632 3.648 3.649s-1.66 3.649-3.648 3.649h-68.925c-1.988 0-3.621-1.632-3.621-3.649s1.633-3.649 3.621-3.649h68.925zM139.804 363.015l-7.951 7.951 7.98 8.012a43.232 43.232 0 0 1 2.138-2.493l.06-.059.058-.06.03-.03.06-.089.06-.029.06-.06.089-.118.058-.06.06-.06.06-.06.06-.059.03-.06.03-.03.028-.029.06-.029.06-.06.03-.06.06-.059.06-.06.03-.03.028-.029.03-.06.06-.03.06-.059.06-.059.06-.061.03-.059.058-.029.06-.061.06-.059.03-.06.06-.03.06-.059.058-.06.03-.06.06-.059.06-.029.03-.061h.03l.06-.059.028-.06.06-.03.06-.059.06-.06.03-.03.03-.029.06-.029.028-.06.06-.06.06-.059.06-.06.06-.03.06-.059.058-.061.06-.059.03-.029.06-.06.12-.118.058-.061.06-.029.089-.089.03-.03.06-.059.058-.029a55.767 55.767 0 0 1 2.463-2.137l-7.996-8z" fill-rule="evenodd" clip-rule="evenodd" fill="#00bfa5" class="fill-000000"></path></svg>