<svg viewBox="0 0 32 32" xml:space="preserve" xmlns="http://www.w3.org/2000/svg"><path d="M27 24a1 1 0 0 1-1-1v-3a1 1 0 1 1 2 0v3a1 1 0 0 1-1 1zM23 24a1 1 0 0 1-1-1v-3a1 1 0 1 1 2 0v3a1 1 0 0 1-1 1zM19 24a1 1 0 0 1-1-1v-3a1 1 0 1 1 2 0v3a1 1 0 0 1-1 1zM15 24a1 1 0 0 1-1-1v-3a1 1 0 1 1 2 0v3a1 1 0 0 1-1 1zM9 24a1 1 0 0 1-1-1v-3a1 1 0 1 1 2 0v3a1 1 0 0 1-1 1zM5 24a1 1 0 0 1-1-1v-3a1 1 0 1 1 2 0v3a1 1 0 0 1-1 1z" fill="#00bfa5" class="fill-4391b2 fill-00bfa5"></path><path d="M29 14c0 .55.45 1 1 1s1 .45 1 1v4c0 .55-.45 1-1 1H2c-.55 0-1-.45-1-1v-4c0-.55.45-1 1-1s1-.45 1-1-.45-1-1-1-1-.45-1-1V9c0-.55.45-1 1-1h28c.55 0 1 .45 1 1v3c0 .55-.45 1-1 1s-1 .45-1 1z" fill="#00bfa5" class="fill-48b1dd fill-00bfa5"></path><path d="M12 12v5c0 .55-.45 1-1 1H7c-.55 0-1-.45-1-1v-5c0-.55.45-1 1-1h4c.55 0 1 .45 1 1zM26 12v5c0 .55-.45 1-1 1H14c-.55 0-1-.45-1-1v-5c0-.55.45-1 1-1h11c.55 0 1 .45 1 1z" fill="#000000" class="fill-96cee5 fill-ffffff"></path></svg>