<svg viewBox="0 0 32 32" xml:space="preserve" xmlns="http://www.w3.org/2000/svg" enable-background="new 0 0 32 32"><path d="M26 21c-.6 0-1-.4-1-1s.4-1 1-1h4c0-1.7-1.3-3-3-3h-.4l-2-4h5.5c1 0 1.9-.8 1.9-1.9C32 7.3 29.7 5 26.9 5H1c-.6 0-1 .4-1 1v20c0 .6.4 1 1 1h1.1c.4 1.7 2 3 3.9 3s3.4-1.3 3.9-3h9.2c.4 1.7 2 3 3.9 3s3.4-1.3 3.9-3h.1c1.7 0 3-1.3 3-3v-3h-4zM6 28c-1.1 0-2-.9-2-2s.9-2 2-2 2 .9 2 2-.9 2-2 2zm12-12v-4h4.4l2 4H18zm5 12c-1.1 0-2-.9-2-2s.9-2 2-2 2 .9 2 2-.9 2-2 2z" fill="#00bfa5" class="fill-000000"></path></svg>