<svg data-name="Layer 1" viewBox="0 0 512 512" xmlns="http://www.w3.org/2000/svg"><path d="M237.26 165.48a17.27 17.27 0 0 0 .9 4 8.21 8.21 0 0 0 2.05 2.9 21.55 21.55 0 0 0 5.37 3.64 19 19 0 0 0 3.06 1.15V151.1a15.34 15.34 0 0 0-7.51 4.08 13.26 13.26 0 0 0-3.87 10.3Z" fill="#00bfa5" class="fill-000000"></path><path d="M254.93 249.33a64.43 64.43 0 1 0-64.42-64.43 64.5 64.5 0 0 0 64.42 64.43Zm-35.18-46a7 7 0 0 1 6.18-2.42 7.54 7.54 0 0 1 7.58 6.66 15.2 15.2 0 0 0 5.85 8.12 21.28 21.28 0 0 0 9.31 3.58v-26.52a35.83 35.83 0 0 1-17.41-7.51 28.35 28.35 0 0 1-9.71-18.79 26.51 26.51 0 0 1 1.67-12.18 28.28 28.28 0 0 1 6.68-9.85 30.62 30.62 0 0 1 10.64-6.53 41.65 41.65 0 0 1 8.13-2.09v-2.21a8.27 8.27 0 0 1 2.52-6.12 8.41 8.41 0 0 1 14.19 6.12v3.07a29.11 29.11 0 0 1 13.52 7.57c5 4.91 7.63 11.48 7.81 19.5-.94 5.16-3.57 7.73-7.12 8.16-4.43.46-7.61-2.35-8.14-6.77a22.75 22.75 0 0 0-1-5 12.48 12.48 0 0 0-2.18-3.92 18.82 18.82 0 0 0-2.85-2.79v26.65a33.42 33.42 0 0 1 9.58 4 27.6 27.6 0 0 1 8.33 7.82 26.27 26.27 0 0 1 3.85 9.75 32.35 32.35 0 0 1 .48 9.09 25.73 25.73 0 0 1-7.12 15.63c-3.54 3.92-8.61 6.53-15.12 7.75v2a8 8 0 0 1-3.18 6.59 8.87 8.87 0 0 1-5.29 1.8 8.4 8.4 0 0 1-5.42-2 8 8 0 0 1-2.79-6.4v-1.75a43 43 0 0 1-17.74-5.98 27.51 27.51 0 0 1-12.57-18.88 6.85 6.85 0 0 1 1.32-6.1Z" fill="#00bfa5" class="fill-000000"></path><path d="M254.93 98.45a86 86 0 0 1 48.23 14.74c8.16-14.26 14.1-31.46 13.86-51.5-.77-63.23-46.92-58.12-61-32.64C241.9 3.57 195.76-1.54 195 61.69c-.23 19.59 5.43 36.48 13.3 50.55a85.76 85.76 0 0 1 46.63-13.79ZM270.37 215.34a9.72 9.72 0 0 0 1.52-2.85 9 9 0 0 0 .54-2.23v-.12c.12-5-.84-8.73-2.84-11a12.51 12.51 0 0 0-4.24-3v22.68a8.87 8.87 0 0 0 1.23-.55 12.72 12.72 0 0 0 3.79-2.93ZM396.43 139.81c19.88-21.29 10.48-66.75-49.9-47.95a98.31 98.31 0 0 0-39.71 24.06 86 86 0 0 1 30.27 95.75 98.51 98.51 0 0 0 47.15-3.75c59.9-20.27 40.76-62.58 12.19-68.11Z" fill="#00bfa5" class="fill-000000"></path><path d="M335.64 215.62a86.31 86.31 0 0 1-161.09.87c-13.87 6.77-27.49 16.74-38.24 31.91-36.54 51.6 3.79 74.6 30.18 62.27-3.57 28.91 30.76 60.17 68.55 9.46a96.25 96.25 0 0 0 9.23-15.4v70.91h-74.39v31.89h172.23v-31.89h-74.36v-70.89a95.51 95.51 0 0 0 9.25 15.38c37.8 50.71 72.12 19.45 68.55-9.46C371.9 323 412.23 300 375.69 248.4c-11.21-15.83-25.55-26.01-40.05-32.78ZM172.9 212a86 86 0 0 1 31.36-97 98.17 98.17 0 0 0-38.79-23.16c-60.38-18.8-69.78 26.66-49.9 48-28.59 5.53-47.71 47.84 12.19 68.11A98.23 98.23 0 0 0 172.9 212ZM183.31 500.72h145.38l6.65-71.17H176.66l6.65 71.17z" fill="#00bfa5" class="fill-000000"></path></svg>