<svg data-name="Layer 1" viewBox="0 0 500 500" xmlns="http://www.w3.org/2000/svg"><circle cx="250" cy="250" r="239" fill="#000000" class="fill-2a73ff"></circle><path d="M204.31 108.86H341v220.48H145.62V167.55a58.69 58.69 0 0 1 58.69-58.69ZM127.25 329.34H341v30.9a30.9 30.9 0 0 1-30.9 30.9H127.25a30.9 30.9 0 0 1-30.9-30.9 30.9 30.9 0 0 1 30.9-30.9Z" stroke="#000000" stroke-miterlimit="10" stroke-width="15px" fill="#00bfa5" class="fill-ffffff stroke-000000"></path><path d="M286.25 391.14a30.9 30.9 0 0 1-30.9-30.9 30.9 30.9 0 0 1 30.9-30.9" fill="none" stroke="#000000" stroke-miterlimit="10" stroke-width="15px" class="stroke-000000"></path><path d="M341 108.86h21.71a30.9 30.9 0 0 1 30.9 30.9 30.9 30.9 0 0 1-30.9 30.9H341v-61.8ZM179.03 282.57h128.6M179.03 244.15h128.6M179.03 205.74h128.6M179.03 167.32h128.6" stroke="#000000" stroke-miterlimit="10" stroke-width="15px" fill="#00bfa5" class="fill-ffffff stroke-000000"></path></svg>